<?xml version="1.0" encoding="UTF-8"?>
<svg id="Layer_1" xmlns="http://www.w3.org/2000/svg" version="1.1" viewBox="0 0 128 128">
  <!-- Generator: Adobe Illustrator 30.3.0, SVG Export Plug-In . SVG Version: 2.1.3 Build 182)  -->
  <defs>
    <style>
      .st0 {
        fill: #636e47;
      }
    </style>
  </defs>
  <path class="st0" d="M42.54,74.09c4.5,5.03,6.73,12.24,6.73,21.69v32.21h-27.13v-61.38c.26-.02.53-.02.81-.02,8.6,0,15.11,2.52,19.59,7.49"/>
  <path class="st0" d="M49.61,60.83v6.01c-6.4-6.82-15.25-10.25-26.65-10.25-.29,0-.55,0-.81.02v-20.11c1.6-.26,3.33-.41,5.17-.41,7.28,0,12.81,2.13,16.6,6.39,3.81,4.24,5.7,10.35,5.7,18.34"/>
  <path class="st0" d="M22.14,0h34.7c-4.12,6.71-6.15,15.16-6.15,25.34v11.9c-.21-.29-.46-.55-.69-.81-5.41-5.87-12.98-8.81-22.68-8.81-1.8,0-3.52.1-5.17.31V0h0Z"/>
  <path class="st0" d="M105.86,0v18.2c-4.46-1.73-9.53-2.59-15.28-2.59-11.45,0-20.36,3.45-26.75,10.35-.89.96-1.7,1.99-2.44,3.04v-3.67c0-10.08,2.37-17.79,7.16-23.13.72-.79,1.48-1.53,2.3-2.2h35.01Z"/>
  <path class="st0" d="M90.58,25.62c6.15,0,11.26,1.29,15.28,3.86v45.09c-5.08-3.98-11.64-5.99-19.64-5.99-9.27,0-16.6,2.71-21.96,8.05v-21.82c0-9.46,2.23-16.67,6.73-21.69,4.48-4.98,10.99-7.49,19.59-7.49"/>
  <path class="st0" d="M102.84,83.43c1.22,1.36,2.23,2.92,3.02,4.67v39.9h-41.93v-26.2c0-8,1.89-14.1,5.7-18.37,3.79-4.24,9.32-6.37,16.6-6.37s12.81,2.13,16.62,6.37"/>
</svg>