<?xml version="1.0" encoding="UTF-8"?>
<svg id="Layer_1" xmlns="http://www.w3.org/2000/svg" version="1.1" viewBox="0 0 1135.03 328.61">
  <!-- Generator: Adobe Illustrator 30.3.0, SVG Export Plug-In . SVG Version: 2.1.3 Build 182)  -->
  <defs>
    <style>
      .st0 {
        fill: #626d46;
      }

      .st1 {
        fill: #2a3b23;
      }
    </style>
  </defs>
  <polygon class="st1" points="365.58 213.9 365.58 222.39 336.55 222.39 336.55 306.03 327.94 306.03 327.94 222.39 298.91 222.39 298.91 213.9 365.58 213.9"/>
  <path class="st1" d="M408.87,239.24c10.66,0,18.94,2.97,24.85,8.92,5.9,5.95,8.85,14.21,8.85,24.79v.12c0,1.23-.43,2.26-1.29,3.08-.86.82-1.87,1.23-3.01,1.23h-54.24c.74,6.72,3.2,11.85,7.38,15.38,4.18,3.53,9.96,5.29,17.34,5.29,7.95,0,14.06-2.05,18.33-6.15l6.03,6.15c-5.99,5.74-14.11,8.61-24.36,8.61s-18.82-2.95-24.72-8.86c-5.9-5.9-8.86-14.14-8.86-24.72v-.12c0-10.58,2.95-18.84,8.86-24.79,5.9-5.94,14.18-8.92,24.85-8.92M433.84,268.76c-.74-6.8-3.22-11.99-7.44-15.56-4.22-3.57-10.07-5.35-17.53-5.35s-13.3,1.78-17.53,5.35c-4.22,3.57-6.66,8.76-7.32,15.56h49.82Z"/>
  <path class="st1" d="M479.72,248.28c5.49-5.94,13.16-8.92,23-8.92v8.61c-7.38,0-13,2.15-16.85,6.46-3.85,4.3-5.78,10.52-5.78,18.63v32.96h-8.61v-32.96c0-10.58,2.75-18.84,8.24-24.78"/>
  <path class="st1" d="M539.25,248.28c5.49-5.94,13.16-8.92,23-8.92v8.61c-7.38,0-13,2.15-16.85,6.46-3.85,4.3-5.78,10.52-5.78,18.63v32.96h-8.61v-32.96c0-10.58,2.75-18.84,8.24-24.78"/>
  <path class="st1" d="M619.32,239.24c10.66,0,18.94,2.97,24.85,8.92,5.9,5.95,8.85,14.21,8.85,24.78v14.76c0,1.4-.33,3.18-.98,5.35-.66,2.17-2.15,4.26-4.49,6.27-2.34,2.01-5.72,3.73-10.15,5.17-4.43,1.44-10.45,2.15-18.08,2.15s-13.65-.72-18.08-2.15c-4.43-1.43-7.81-3.16-10.15-5.17-2.34-2.01-3.84-4.1-4.49-6.27-.66-2.17-.98-3.96-.98-5.35,0-5,.78-8.94,2.34-11.81,1.56-2.87,3.65-5.02,6.27-6.46,2.62-1.43,5.72-2.36,9.29-2.77,3.57-.41,7.4-.61,11.5-.61h28.78c-1.15-5.9-3.77-10.41-7.87-13.53-4.1-3.11-9.64-4.67-16.6-4.67s-12.75,1.68-17.1,5.04l-5.29-6.76c5.82-4.59,13.29-6.89,22.39-6.89M644.41,274.66h-25.09c-5.49,0-9.9.14-13.22.43-3.32.29-5.86.88-7.63,1.78-1.77.9-2.91,2.21-3.45,3.94-.53,1.72-.8,4.02-.8,6.89,0,1.89.74,3.49,2.21,4.8,1.48,1.31,3.4,2.38,5.78,3.2,2.38.82,5.06,1.41,8.06,1.78,2.99.37,6.01.55,9.04.55s6.05-.18,9.04-.55c2.99-.37,5.68-.96,8.06-1.78,2.38-.82,4.31-1.89,5.78-3.2,1.48-1.31,2.21-2.91,2.21-4.8v-13.04Z"/>
  <path class="st1" d="M729.53,306.03h-37.88c-1.64,0-2.87-.7-3.69-2.09-.98-1.48-.98-2.91,0-4.3l29.89-50.43h-30.5v-8.61h37.88c1.64,0,2.91.74,3.81,2.21.82,1.48.78,2.91-.12,4.3l-29.77,50.43h30.38v8.49Z"/>
  <path class="st1" d="M807.75,306.03h-37.88c-1.64,0-2.87-.7-3.69-2.09-.98-1.48-.98-2.91,0-4.3l29.89-50.43h-30.5v-8.61h37.88c1.64,0,2.91.74,3.81,2.21.82,1.48.78,2.91-.12,4.3l-29.77,50.43h30.38v8.49Z"/>
  <path class="st1" d="M869.87,306.64c-10.66,0-18.94-2.95-24.85-8.86-5.9-5.9-8.85-14.19-8.85-24.85s2.95-18.84,8.85-24.78c5.91-5.95,14.19-8.92,24.85-8.92s18.94,2.97,24.85,8.92c5.9,5.95,8.86,14.21,8.86,24.78s-2.95,18.94-8.86,24.85c-5.9,5.9-14.19,8.86-24.85,8.86M869.87,247.85c-8.2,0-14.43,2.13-18.7,6.4-4.27,4.27-6.4,10.5-6.4,18.7s2.13,14.43,6.4,18.7c4.26,4.27,10.49,6.4,18.7,6.4s14.43-2.13,18.69-6.4c4.26-4.26,6.4-10.5,6.4-18.7s-2.13-14.43-6.4-18.7c-4.26-4.26-10.5-6.4-18.69-6.4"/>
  <path class="st0" d="M52.38,190.22c11.56,12.91,17.28,31.42,17.28,55.7v82.69H0v-157.58c.68-.06,1.35-.06,2.09-.06,22.07,0,38.79,6.46,50.29,19.24"/>
  <path class="st0" d="M70.52,156.16v15.43c-16.42-17.52-39.16-26.31-68.43-26.31-.74,0-1.41,0-2.09.06v-51.64c4.12-.68,8.55-1.04,13.28-1.04,18.69,0,32.89,5.47,42.61,16.41,9.78,10.88,14.63,26.56,14.63,47.09"/>
  <path class="st0" d="M0,0h89.09c-10.57,17.22-15.8,38.92-15.8,65.05v30.56c-.55-.74-1.17-1.41-1.78-2.09-13.89-15.06-33.32-22.62-58.22-22.62-4.61,0-9.04.25-13.28.8V0Z"/>
  <path class="st0" d="M214.94,0v46.72c-11.44-4.43-24.47-6.64-39.23-6.64-29.39,0-52.26,8.85-68.67,26.56-2.28,2.46-4.37,5.1-6.27,7.81v-9.41c0-25.88,6.09-45.68,18.38-59.39,1.85-2.03,3.81-3.93,5.9-5.66h89.89Z"/>
  <path class="st0" d="M175.71,65.78c15.8,0,28.9,3.32,39.23,9.9v115.77c-13.04-10.21-29.88-15.37-50.42-15.37-23.79,0-42.61,6.95-56.38,20.66v-56.01c0-24.29,5.72-42.79,17.28-55.7,11.5-12.79,28.22-19.24,50.29-19.24"/>
  <path class="st0" d="M207.19,214.2c3.14,3.5,5.72,7.5,7.75,11.99v102.43h-107.65v-67.26c0-20.54,4.86-36.21,14.63-47.16,9.72-10.88,23.92-16.35,42.61-16.35s32.89,5.47,42.67,16.35"/>
  <path class="st1" d="M426.59,155.35c-13.57,12.91-32.01,19.36-55.3,19.36-11.98,0-22.66-1.73-32.04-5.19-9.39-3.46-17.34-8.45-23.86-14.97-6.53-6.52-11.52-14.48-14.97-23.86-3.46-9.38-5.2-20.06-5.2-32.04s1.73-22.49,5.2-31.94c3.45-9.45,8.45-17.44,14.97-23.96,6.52-6.52,14.47-11.51,23.86-14.97,9.38-3.46,20.06-5.19,32.04-5.19,19.97,0,36.4,4.86,49.31,14.57l-8.38,11.18c-10.52-7.85-24.15-11.77-40.93-11.77-20.23,0-35.64,5.32-46.22,15.97-10.58,10.65-15.87,26.02-15.87,46.12s5.29,35.67,15.87,46.32c10.58,10.65,25.99,15.97,46.22,15.97,9.58,0,18.23-1.32,25.95-3.99,7.72-2.66,14.24-6.58,19.56-11.77l9.78,10.18Z"/>
  <rect class="st1" x="637.98" y="22.59" width="13.97" height="18.77"/>
  <rect class="st1" x="637.98" y="68.5" width="13.97" height="106.22"/>
  <path class="st1" d="M726.25,65.31c17.17,0,30.55,4.79,40.13,14.38,9.59,9.58,14.38,23.03,14.38,40.33s-4.79,30.55-14.38,40.13c-9.58,9.58-22.96,14.37-40.13,14.37s-30.75-4.79-40.33-14.37c-9.58-9.59-14.37-22.96-14.37-40.13V22.59h13.97v57.69c4.66-4.79,10.41-8.48,17.27-11.08,6.85-2.59,14.68-3.89,23.46-3.89M726.25,160.74c13.18,0,23.26-3.49,30.24-10.48,6.99-6.99,10.48-17.07,10.48-30.25s-3.5-23.42-10.48-30.34c-6.99-6.92-17.07-10.39-30.24-10.39s-23.43,3.47-30.35,10.39c-6.92,6.92-10.38,17.04-10.38,30.34s3.46,23.26,10.38,30.25c6.92,6.99,17.04,10.48,30.35,10.48"/>
  <path class="st1" d="M855.06,65.11c17.3,0,30.75,4.83,40.33,14.48,9.58,9.65,14.37,23.06,14.37,40.23v.2c0,2-.7,3.67-2.09,4.99-1.4,1.33-3.03,2-4.89,2h-88.04c1.2,10.92,5.19,19.24,11.98,24.96,6.79,5.73,16.17,8.59,28.15,8.59,12.91,0,22.82-3.33,29.75-9.98l9.78,9.98c-9.72,9.32-22.9,13.98-39.53,13.98s-30.55-4.79-40.13-14.37c-9.58-9.59-14.38-22.96-14.38-40.13v-.2c0-17.17,4.79-30.58,14.38-40.23,9.58-9.65,23.02-14.48,40.33-14.48M895.59,113.02c-1.2-11.04-5.22-19.46-12.08-25.25-6.86-5.79-16.34-8.69-28.45-8.69s-21.59,2.9-28.45,8.69c-6.86,5.79-10.82,14.21-11.88,25.25h80.86Z"/>
  <rect class="st1" x="929.36" y="22.59" width="13.97" height="18.77"/>
  <rect class="st1" x="929.36" y="68.5" width="13.97" height="106.22"/>
  <path class="st1" d="M1134.81,113.48c-.07-1.67-.29-3.26-.51-4.78-1.52-11.96-5.73-21.68-12.61-29.22-7.54-8.12-17.54-12.83-30.09-14.06-2.32-.22-4.71-.36-7.25-.36h-51.11v13.92h51.11c11.96,0,21.1,3.55,27.33,10.51,4.35,4.93,7.25,11.31,8.56,19.21h-46.91c-6.6,0-12.83.29-18.63.94-5.8.72-10.8,2.17-15.08,4.49-4.28,2.39-7.69,5.87-10.22,10.51-2.47,4.64-3.77,11.02-3.77,19.14,0,2.32.58,5.22,1.59,8.7,1.09,3.55,3.48,6.96,7.32,10.22,3.77,3.26,9.28,6.02,16.46,8.34s16.97,3.48,29.36,3.48,22.11-1.16,29.36-3.48c4.42-1.45,8.27-3.05,11.38-4.79v7.03h13.92v-53.94c0-2.03-.07-3.99-.22-5.87M1117.48,151.61c-2.39,2.1-5.51,3.84-9.35,5.15-3.92,1.38-8.27,2.32-13.12,2.9-4.86.65-9.71.94-14.64.94s-9.86-.29-14.72-.94c-4.86-.58-9.21-1.52-13.05-2.9-3.84-1.3-6.96-3.04-9.42-5.15-2.39-2.17-3.55-4.71-3.55-7.83,0-4.64.43-8.34,1.31-11.16.87-2.76,2.68-4.93,5.58-6.38,2.83-1.45,6.96-2.39,12.4-2.9,5.36-.43,12.54-.72,21.46-.72h40.74v21.17c0,3.12-1.23,5.66-3.62,7.83"/>
  <path class="st1" d="M976.3,79.53c8.91-9.65,21.36-14.48,37.34-14.48v13.98c-11.99,0-21.1,3.5-27.36,10.48-6.26,6.99-9.38,17.07-9.38,30.24v54.96h-13.98v-54.96c0-17.17,4.45-30.58,13.37-40.23"/>
  <path class="st1" d="M618.16,113.28c-.07-1.67-.29-3.26-.51-4.78-1.52-11.96-5.73-21.68-12.61-29.22-7.54-8.12-17.54-12.83-30.09-14.06-2.32-.22-4.71-.36-7.25-.36h-51.11v13.92h51.11c11.96,0,21.1,3.55,27.33,10.51,4.35,4.93,7.25,11.31,8.56,19.21h-46.9c-6.6,0-12.83.29-18.63.94-5.8.72-10.8,2.17-15.08,4.49-4.28,2.39-7.68,5.87-10.22,10.51-2.47,4.64-3.77,11.02-3.77,19.14,0,2.32.58,5.22,1.6,8.7,1.09,3.55,3.48,6.96,7.32,10.22,3.77,3.26,9.28,6.02,16.46,8.34s16.97,3.48,29.36,3.48,22.11-1.16,29.36-3.48c4.42-1.45,8.27-3.05,11.38-4.79v8.66h13.92v-55.57c0-2.03-.07-3.99-.22-5.87M600.84,151.41c-2.39,2.1-5.51,3.84-9.35,5.15-3.92,1.38-8.27,2.32-13.12,2.9-4.86.65-9.71.94-14.64.94s-9.86-.29-14.72-.94c-4.86-.58-9.21-1.52-13.05-2.9-3.84-1.3-6.96-3.04-9.42-5.15-2.39-2.17-3.55-4.71-3.55-7.83,0-4.64.43-8.34,1.31-11.16.87-2.76,2.68-4.93,5.58-6.38,2.83-1.45,6.96-2.39,12.4-2.9,5.36-.43,12.54-.72,21.46-.72h40.74v21.17c0,3.12-1.23,5.66-3.62,7.83"/>
  <path class="st1" d="M459.66,79.33c8.91-9.65,21.36-14.48,37.34-14.48v13.98c-11.99,0-21.1,3.5-27.36,10.48-6.26,6.99-9.38,17.07-9.38,30.24v54.96h-13.97v-54.96c0-17.17,4.45-30.58,13.37-40.23"/>
</svg>